<?xml version="1.0" encoding="UTF-8" standalone="no"?>
<!DOCTYPE svg PUBLIC "-//W3C//DTD SVG 1.1//EN" "http://www.w3.org/Graphics/SVG/1.1/DTD/svg11.dtd">
<svg width="100%" height="100%" viewBox="0 0 1280 1280" version="1.1" xmlns="http://www.w3.org/2000/svg" xmlns:xlink="http://www.w3.org/1999/xlink" xml:space="preserve" xmlns:serif="http://www.serif.com/" style="fill-rule:evenodd;clip-rule:evenodd;stroke-linecap:round;stroke-linejoin:round;stroke-miterlimit:1.5;">
    <rect id="talentassisto-logo" x="0" y="0" width="1280" height="1280" style="fill:none;"/>
    <clipPath id="_clip1">
        <rect id="talentassisto-logo1" serif:id="talentassisto-logo" x="0" y="0" width="1280" height="1280"/>
    </clipPath>
    <g clip-path="url(#_clip1)">
        <g transform="matrix(0.991985,0,0,0.991985,0.517583,0.12565)">
            <g transform="matrix(1.07065,0,0,1.07065,-41.9497,-45.1702)">
                <path d="M640,845.033L183.034,845.033L48.589,710.588L48.589,575.092L175.179,575.092" style="fill:none;stroke:rgb(60,231,252);stroke-width:37.66px;"/>
            </g>
            <g transform="matrix(1.07065,0,0,1.07065,-41.9497,-45.1702)">
                <path d="M748.565,845.033L1225.31,845.033L1225.31,657.35L1080.77,657.35" style="fill:none;stroke:rgb(60,231,252);stroke-width:37.66px;"/>
            </g>
            <g transform="matrix(1.07065,0,0,1.10197,-41.9497,-71.6423)">
                <path d="M508.761,845.033L696.959,1216.88L911.618,1216.88L748.565,845.033" style="fill:none;stroke:rgb(60,231,252);stroke-width:37.12px;"/>
            </g>
            <g transform="matrix(1.07065,0,0,1.07065,-41.9497,-45.1702)">
                <path d="M242.194,845.033L242.194,725.409" style="fill:none;stroke:rgb(60,231,252);stroke-width:37.66px;"/>
            </g>
            <g transform="matrix(1.07065,0,0,1.07065,-41.9497,-45.1702)">
                <path d="M838.832,845.033L838.832,640" style="fill:none;stroke:rgb(60,231,252);stroke-width:37.66px;"/>
            </g>
            <g transform="matrix(1.07065,0,0,1.03316,-41.9497,-13.4938)">
                <path d="M640,845.033L640,725.409" style="fill:none;stroke:rgb(60,231,252);stroke-width:38.33px;"/>
            </g>
            <g transform="matrix(1.07065,0,0,1.07065,-41.9497,-45.1702)">
                <path d="M416.337,845.033L416.337,609.826L564.009,462.154L781.528,462.154" style="fill:none;stroke:rgb(60,231,252);stroke-width:37.66px;"/>
            </g>
            <g transform="matrix(1.07065,0,0,1.07065,-41.9497,-45.1702)">
                <path d="M1225.31,592.341L1225.31,285.728L1000.39,60.809L715.713,60.809" style="fill:none;stroke:rgb(60,231,252);stroke-width:37.66px;"/>
            </g>
            <g transform="matrix(1.07065,0,0,1.07065,-41.9497,-45.1702)">
                <path d="M640,60.809L285.087,60.809L57.648,288.247L57.648,503.411" style="fill:none;stroke:rgb(60,231,252);stroke-width:37.66px;"/>
            </g>
            <g transform="matrix(1.07065,0,0,1.07065,-41.9497,-45.1702)">
                <path d="M1225.31,462.154L1032.01,462.154" style="fill:none;stroke:rgb(60,231,252);stroke-width:37.66px;"/>
            </g>
            <g transform="matrix(1.07065,0,0,1.07065,-41.9497,-45.1702)">
                <path d="M640,60.809L640,212.455" style="fill:none;stroke:rgb(60,231,252);stroke-width:37.66px;"/>
            </g>
            <g transform="matrix(1.07065,0,0,1.07065,-41.9497,-45.1702)">
                <path d="M348.824,60.809L348.824,173.86" style="fill:none;stroke:rgb(60,231,252);stroke-width:37.66px;"/>
            </g>
            <g transform="matrix(1.07065,0,0,1.07065,-41.9497,-45.1702)">
                <path d="M57.648,363.074L237.912,363.074L331.979,457.141" style="fill:none;stroke:rgb(60,231,252);stroke-width:37.66px;"/>
            </g>
            <g transform="matrix(1.07065,0,0,1.07065,-43.4167,-45.1702)">
                <circle cx="350.194" cy="246.107" r="72.247" style="fill:none;stroke:rgb(60,231,252);stroke-width:37.66px;"/>
            </g>
            <g transform="matrix(1.07065,0,0,1.07065,268.33,-3.84823)">
                <circle cx="350.194" cy="246.107" r="72.247" style="fill:none;stroke:rgb(60,231,252);stroke-width:37.66px;"/>
            </g>
            <g transform="matrix(1.07065,0,0,1.07065,565.958,-45.1702)">
                <path d="M350.194,173.86C390.068,173.86 422.441,206.233 422.441,246.107C422.441,285.981 390.068,318.354 350.194,318.354C310.32,318.354 277.947,285.981 277.947,246.107C277.947,206.233 310.32,173.86 350.194,173.86" style="fill:none;stroke:rgb(60,231,252);stroke-width:37.66px;"/>
            </g>
            <g transform="matrix(1.07065,0,0,1.07065,497.208,186.14)">
                <circle cx="350.194" cy="246.107" r="72.247" style="fill:none;stroke:rgb(60,231,252);stroke-width:37.66px;"/>
            </g>
            <g transform="matrix(1.07065,0,0,1.07065,662.649,395.127)">
                <circle cx="350.194" cy="246.107" r="72.247" style="fill:none;stroke:rgb(60,231,252);stroke-width:37.66px;"/>
            </g>
            <g transform="matrix(1.07065,0,0,1.07065,268.33,395.127)">
                <circle cx="350.194" cy="246.107" r="72.247" style="fill:none;stroke:rgb(60,231,252);stroke-width:37.66px;"/>
            </g>
            <g transform="matrix(1.07065,0,0,1.07065,-152.238,307.056)">
                <circle cx="350.194" cy="246.107" r="72.247" style="fill:none;stroke:rgb(60,231,252);stroke-width:37.66px;"/>
            </g>
            <g transform="matrix(1.07065,0,0,1.07065,-41.9497,-45.1702)">
                <path d="M917.988,60.809L917.988,173.86" style="fill:none;stroke:rgb(60,231,252);stroke-width:37.66px;"/>
            </g>
        </g>
    </g>
</svg>
